<?xml version="1.0" encoding="iso-8859-1"?>
<!-- Generator: Adobe Illustrator 19.0.0, SVG Export Plug-In . SVG Version: 6.00 Build 0)  -->
<svg fill="#C24444" version="1.1" id="Layer_1" xmlns="http://www.w3.org/2000/svg" xmlns:xlink="http://www.w3.org/1999/xlink" x="0px" y="0px"
	 viewBox="0 0 512 512" style="enable-background:new 0 0 512 512;" xml:space="preserve">
<g>
	<g>
		<path d="M437.019,74.98C388.667,26.628,324.381,0,256,0C187.62,0,123.333,26.628,74.98,74.98C26.628,123.333,0,187.62,0,256
			s26.628,132.667,74.98,181.02C123.333,485.372,187.62,512,256,512c68.381,0,132.667-26.628,181.019-74.98
			C485.372,388.667,512,324.38,512,256S485.372,123.333,437.019,74.98z M256,491.602c-129.911,0-235.602-105.69-235.602-235.602
			S126.089,20.398,256,20.398S491.602,126.089,491.602,256S385.911,491.602,256,491.602z"/>
	</g>
</g>
<g>
	<g>
		<path d="M393.984,348.431c-0.592-2.845-2.369-5.302-4.885-6.754L296.35,288.13c-3.755-2.168-8.471-1.726-11.756,1.105
			c-7.953,6.85-18.109,10.622-28.594,10.622c-10.487,0-20.641-3.773-28.594-10.622c-3.285-2.829-8.001-3.274-11.756-1.105
			l-92.748,53.548c-2.516,1.452-4.293,3.909-4.885,6.755c-0.593,2.846,0.057,5.806,1.785,8.143
			c15.42,20.849,35.723,38.138,58.713,49.993c23.771,12.258,50.566,18.738,77.486,18.738c26.921,0,53.715-6.48,77.486-18.739
			c22.99-11.857,43.293-29.144,58.713-49.993C393.927,354.238,394.577,351.276,393.984,348.431z M256,404.908
			c-43.176,0-84.473-19.064-112.617-51.503l76.586-44.217c10.589,7.177,23.138,11.066,36.031,11.066s25.442-3.889,36.03-11.066
			l76.586,44.217C340.473,385.844,299.176,404.908,256,404.908z"/>
	</g>
</g>
<g>
	<g>
		<path d="M244.951,90.293c-2.163-1.935-5.049-2.854-7.932-2.535C151.319,97.327,86.693,169.656,86.693,256
			c0,23.506,4.741,46.281,14.089,67.69c1.162,2.66,3.402,4.7,6.16,5.607c1.039,0.342,2.114,0.51,3.186,0.51
			c1.772,0,3.533-0.462,5.1-1.367l92.763-53.556c3.75-2.165,5.725-6.462,4.924-10.718c-0.512-2.722-0.772-5.47-0.772-8.167
			c0-18.616,11.806-35.252,29.376-41.399c4.092-1.431,6.831-5.292,6.831-9.627V97.894C248.351,94.992,247.114,92.227,244.951,90.293
			z M227.952,198.188c-21.924,10.639-36.207,33.029-36.207,57.812c0,1.531,0.057,3.071,0.169,4.613l-76.62,44.237
			c-5.447-15.653-8.202-32.036-8.202-48.85c0-72.086,51.206-133.063,120.861-146.267V198.188z"/>
	</g>
</g>
<g>
	<g>
		<path d="M274.98,87.758c-2.885-0.319-5.769,0.601-7.931,2.535c-2.163,1.935-3.399,4.7-3.399,7.601v107.08
			c0,4.335,2.741,8.196,6.831,9.627c17.571,6.147,29.376,22.783,29.376,41.399c0,2.698-0.26,5.444-0.772,8.164
			c-0.802,4.256,1.172,8.555,4.923,10.72l92.763,53.556c1.567,0.905,3.328,1.367,5.1,1.367c1.072,0,2.147-0.169,3.186-0.51
			c2.758-0.907,4.999-2.947,6.16-5.608c9.351-21.408,14.09-44.182,14.09-67.69C425.307,169.656,360.681,97.327,274.98,87.758z
			 M396.707,304.85l-76.622-44.237c0.112-1.542,0.169-3.082,0.169-4.613c0-24.783-14.284-47.173-36.207-57.812v-88.455
			C353.702,122.937,404.908,183.914,404.908,256C404.908,272.814,402.154,289.198,396.707,304.85z"/>
	</g>
</g>
<g>
	<g>
		<path d="M256,52.016C143.523,52.016,52.016,143.523,52.016,256S143.523,459.984,256,459.984S459.984,368.477,459.984,256
			S368.477,52.016,256,52.016z M256,439.586c-101.229,0-183.586-82.357-183.586-183.586S154.771,72.414,256,72.414
			S439.586,154.771,439.586,256S357.229,439.586,256,439.586z"/>
	</g>
</g>
<g>
	<g>
		<path d="M357.519,167.572c-3.701-4.245-10.144-4.686-14.39-0.985c-4.246,3.701-4.688,10.144-0.986,14.39
			c18.114,20.778,28.089,47.422,28.089,75.023c0,5.633,4.567,10.199,10.199,10.199S390.63,261.633,390.63,256
			C390.63,223.47,378.871,192.065,357.519,167.572z"/>
	</g>
</g>
<g>
	<g>
		<path d="M328.839,142.758c-4.946-3.186-10.141-6.071-15.446-8.573c-5.096-2.405-11.172-0.223-13.577,4.871
			c-2.403,5.095-0.223,11.172,4.871,13.576c4.498,2.123,8.906,4.569,13.103,7.273c1.708,1.102,3.623,1.627,5.514,1.627
			c3.352,0,6.634-1.65,8.584-4.676C334.939,152.12,333.574,145.809,328.839,142.758z"/>
	</g>
</g>
<g>
</g>
<g>
</g>
<g>
</g>
<g>
</g>
<g>
</g>
<g>
</g>
<g>
</g>
<g>
</g>
<g>
</g>
<g>
</g>
<g>
</g>
<g>
</g>
<g>
</g>
<g>
</g>
<g>
</g>
</svg>
